<svg width="90" height="50" viewBox="0 0 90 50" fill="none" xmlns="http://www.w3.org/2000/svg">
  <path d="M17.9141 41.2812L36.3984 8.98438H38.8516L57.3359 41.2812H54.5859L37.6562 11.5H37.5938L20.6641 41.2812H17.9141ZM21.8047 31.25L23.0469 28.9844H51.9219L53.1641 31.25H21.8047Z" fill="black"/>
  <path d="M69.5 39C66.5 39 64.5 36.2 64.5 31.8C64.5 27.4 66.5 24.6 69.5 24.6C72.5 24.6 74.5 27.4 74.5 31.8C74.5 36.2 72.5 39 69.5 39ZM69.5 25.8C67.3 25.8 65.9 28 65.9 31.8C65.9 35.6 67.3 37.8 69.5 37.8C71.7 37.8 73.1 35.6 73.1 31.8C73.1 28 71.7 25.8 69.5 25.8Z" fill="black"/>
  <path d="M49.5 15C46.5 15 44.5 12.2 44.5 7.8C44.5 3.4 46.5 0.6 49.5 0.6C52.5 0.6 54.5 3.4 54.5 7.8C54.5 12.2 52.5 15 49.5 15ZM49.5 1.8C47.3 1.8 45.9 4 45.9 7.8C45.9 11.6 47.3 13.8 49.5 13.8C51.7 13.8 53.1 11.6 53.1 7.8C53.1 4 51.7 1.8 49.5 1.8Z" fill="black"/>
</svg> 